# xmcd
#
# Track frame offsets: 
#        150
#        28636
#        47724
#        60296
#        73988
#        87397
#        96745
#        112667
#        125893
#        139533
#        175637
#        188755
#        202153
#        220586
#        241873
#        261024
#        278514
#        292237
#
# Disc length: 4232 seconds
#
# Revision: 1
# Processed by: cddbd v1.5.2PL0 Copyright (c) Steve Scherf et al.
# Submitted via: ExactAudioCopyFreeDBPlugin 1.0
#
DISCID=0e108612
DTITLE=Sir Joe Quarterman and Free Soul - Sir Joe Quarterman and Free Soul
DYEAR=1973
DGENRE=Funk
TTITLE0=(I Got) So Much Trouble In My Mind
TTITLE1=I Made A Promise
TTITLE2=The Trouble With Trouble
TTITLE3=The Way They Do My Life
TTITLE4=Find Yourself
TTITLE5=Gonna Get Me A Friend
TTITLE6=Give Me Back My Freedom
TTITLE7=I Feel Like This
TTITLE8=Live Now Brothers
TTITLE9=Thanks Dad (Parts 1 and 2)
TTITLE10=I'm Gonna Get You
TTITLE11=This Girl Of Mine (She's Good To Me)
TTITLE12=No
TTITLE13=Get Down Baby (Parts 1 and 2)
TTITLE14=I'm A Young Man
TTITLE15=How High
TTITLE16=Let Me Be What I Am
TTITLE17=You Know It's True
EXTD=
EXTT0=
EXTT1=
EXTT2=
EXTT3=
EXTT4=
EXTT5=
EXTT6=
EXTT7=
EXTT8=
EXTT9=
EXTT10=
EXTT11=
EXTT12=
EXTT13=
EXTT14=
EXTT15=
EXTT16=
EXTT17=
PLAYORDER=
